<?xml version="1.0" encoding="UTF-8"?>
<svg xmlns="http://www.w3.org/2000/svg" xmlns:xlink="http://www.w3.org/1999/xlink" width="231pt" height="134pt" viewBox="0 0 231 134" version="1.1">
<defs>
<linearGradient id="linear0" gradientUnits="userSpaceOnUse" x1="13411.33" y1="4347.97" x2="16733.96" y2="8663.44" gradientTransform="matrix(0.00778046,0,0,0.00638176,0,0)">
<stop offset="0" style="stop-color:rgb(24.313725%,25.098039%,58.431373%);stop-opacity:1;"/>
<stop offset="1" style="stop-color:rgb(0%,68.627451%,93.72549%);stop-opacity:1;"/>
</linearGradient>
<linearGradient id="linear1" gradientUnits="userSpaceOnUse" x1="11541.3" y1="8260.77" x2="16584.34" y2="8260.77" gradientTransform="matrix(0.00778046,0,0,0.00638176,0,0)">
<stop offset="0" style="stop-color:rgb(21.568627%,20.392157%,20.784314%);stop-opacity:1;"/>
<stop offset="1" style="stop-color:rgb(0%,68.627451%,93.72549%);stop-opacity:1;"/>
</linearGradient>
<linearGradient id="linear2" gradientUnits="userSpaceOnUse" x1="15097.65" y1="4668.59" x2="19536.46" y2="4668.59" gradientTransform="matrix(0.00778046,0,0,0.00638176,0,0)">
<stop offset="0" style="stop-color:rgb(21.568627%,20.392157%,20.784314%);stop-opacity:1;"/>
<stop offset="1" style="stop-color:rgb(0%,68.627451%,93.72549%);stop-opacity:1;"/>
</linearGradient>
<linearGradient id="linear3" gradientUnits="userSpaceOnUse" x1="16393.17" y1="8895.98" x2="19114.26" y2="11340.37" gradientTransform="matrix(0.00778046,0,0,0.00638176,0,0)">
<stop offset="0" style="stop-color:rgb(92.941176%,19.607843%,21.568627%);stop-opacity:1;"/>
<stop offset="0.321569" style="stop-color:rgb(94.509804%,36.078431%,21.176471%);stop-opacity:1;"/>
<stop offset="1" style="stop-color:rgb(96.078431%,52.54902%,20.392157%);stop-opacity:1;"/>
</linearGradient>
</defs>
<g id="surface1">
<path style=" stroke:none;fill-rule:evenodd;fill:url(#linear0);" d="M 93.835938 54.054688 L 84.914062 61.101562 L 82.625 53.378906 C 82.265625 50.722656 83.066406 48.320312 85.148438 46.199219 L 117.464844 20.035156 L 143.90625 26.949219 C 147.011719 27.988281 149.109375 29.957031 150.089844 32.945312 L 152.003906 39.550781 L 120.605469 31.828125 L 103.421875 45.652344 L 125.5625 51.480469 L 129.035156 63 Z M 93.835938 54.054688 "/>
<path style=" stroke:none;fill-rule:evenodd;fill:url(#linear1);" d="M 129.035156 63 L 125.5625 51.480469 L 89.796875 42.4375 L 93.835938 54.054688 Z M 129.035156 63 "/>
<path style=" stroke:none;fill-rule:evenodd;fill:url(#linear2);" d="M 120.03125 31.578125 L 117.464844 20.035156 L 143.90625 26.949219 C 146.648438 27.820312 148.5 29.320312 149.464844 31.453125 L 152.003906 39.550781 Z M 120.03125 31.578125 "/>
<path style=" stroke:none;fill-rule:evenodd;fill:rgb(96.078431%,52.54902%,20.392157%);fill-opacity:1;" d="M 87.953125 70.933594 L 86.074219 64.558594 L 119.003906 72.65625 L 122.726562 84.339844 L 94.238281 77.304688 C 91.230469 76.464844 88.972656 74.570312 87.953125 70.933594 Z M 87.953125 70.933594 "/>
<path style=" stroke:none;fill-rule:evenodd;fill:rgb(96.078431%,52.54902%,20.392157%);fill-opacity:1;" d="M 123.789062 47.777344 L 120.484375 36.496094 L 153.527344 44.804688 L 143.617188 52.671875 Z M 123.789062 47.777344 "/>
<path style=" stroke:none;fill-rule:evenodd;fill:url(#linear3);" d="M 153.527344 44.804688 L 119.003906 72.65625 L 122.726562 84.339844 L 157.261719 56.082031 Z M 153.527344 44.804688 "/>
<path style=" stroke:none;fill-rule:nonzero;fill:rgb(0%,68.627451%,93.72549%);fill-opacity:1;" d="M 47.460938 92.757812 L 40.539062 92.757812 L 40.539062 95.882812 L 46.832031 95.882812 L 46.832031 99.796875 L 40.539062 99.796875 L 40.539062 106.96875 L 34.808594 106.96875 L 34.808594 88.847656 L 47.460938 88.847656 Z M 55.722656 106.96875 L 50.386719 106.96875 L 50.386719 87.054688 L 55.722656 87.054688 Z M 75.214844 101.644531 L 64.117188 101.644531 C 64.117188 103.472656 65.195312 104.386719 67.351562 104.386719 C 68.453125 104.386719 69.296875 104.007812 69.882812 103.246094 L 75.015625 103.246094 C 74.605469 104.351562 74.003906 105.207031 73.203125 105.8125 C 71.765625 106.910156 69.832031 107.457031 67.410156 107.457031 C 64.328125 107.457031 62.015625 106.6875 60.464844 105.148438 C 59.296875 103.996094 58.71875 102.597656 58.71875 100.941406 C 58.71875 98.980469 59.449219 97.382812 60.898438 96.148438 C 62.351562 94.921875 64.398438 94.308594 67.050781 94.308594 C 70.304688 94.308594 72.636719 95.285156 74.039062 97.242188 C 74.824219 98.339844 75.214844 99.625 75.214844 101.082031 Z M 70.246094 99.171875 C 69.871094 97.757812 68.875 97.050781 67.253906 97.050781 C 66.359375 97.050781 65.636719 97.277344 65.085938 97.726562 C 64.640625 98.082031 64.367188 98.5625 64.25 99.171875 Z M 98.179688 106.96875 L 91.164062 106.96875 L 87.292969 103.300781 L 83.433594 106.96875 L 76.433594 106.96875 L 83.9375 100.285156 L 77.84375 94.660156 L 84.75 94.660156 L 87.335938 97.214844 L 89.980469 94.660156 L 96.871094 94.660156 L 90.660156 100.285156 Z M 118.703125 106.648438 C 117.300781 107.105469 115.996094 107.335938 114.800781 107.335938 C 112.71875 107.335938 110.851562 106.789062 109.203125 105.691406 C 107.101562 104.296875 106.050781 102.472656 106.050781 100.226562 C 106.050781 97.972656 107.101562 96.148438 109.203125 94.75 C 110.851562 93.65625 112.730469 93.109375 114.839844 93.109375 C 115.984375 93.109375 117.273438 93.335938 118.703125 93.792969 L 118.703125 98.015625 C 118.300781 97.605469 117.890625 97.300781 117.46875 97.097656 C 116.699219 96.71875 115.875 96.527344 114.992188 96.527344 C 113.878906 96.527344 112.90625 96.804688 112.082031 97.355469 C 111.039062 98.054688 110.515625 99.011719 110.515625 100.226562 C 110.515625 101.4375 111.039062 102.390625 112.082031 103.085938 C 112.90625 103.640625 113.878906 103.914062 114.992188 103.914062 C 115.875 103.914062 116.699219 103.726562 117.46875 103.34375 C 117.882812 103.148438 118.292969 102.839844 118.703125 102.429688 Z M 134.132812 102.351562 C 134.132812 103.632812 133.621094 104.730469 132.59375 105.644531 C 131.355469 106.757812 129.613281 107.3125 127.378906 107.3125 C 125.132812 107.3125 123.390625 106.757812 122.148438 105.644531 C 121.125 104.730469 120.609375 103.605469 120.609375 102.273438 C 120.609375 101.074219 121.128906 100.011719 122.160156 99.082031 C 123.410156 97.964844 125.191406 97.402344 127.5 97.402344 C 129.621094 97.402344 131.316406 97.964844 132.582031 99.082031 C 133.617188 99.996094 134.132812 101.085938 134.132812 102.351562 Z M 129.988281 102.351562 C 129.988281 101.753906 129.734375 101.25 129.222656 100.835938 C 128.714844 100.417969 128.097656 100.210938 127.378906 100.210938 C 126.5625 100.210938 125.894531 100.460938 125.378906 100.96875 C 124.960938 101.375 124.753906 101.835938 124.753906 102.351562 C 124.753906 102.878906 124.960938 103.34375 125.378906 103.75 C 125.894531 104.253906 126.5625 104.503906 127.378906 104.503906 C 128.109375 104.503906 128.722656 104.296875 129.234375 103.882812 C 129.738281 103.46875 129.988281 102.957031 129.988281 102.351562 Z M 148.242188 106.96875 L 144.246094 106.96875 L 144.246094 102.3125 C 144.246094 101.496094 144.136719 100.957031 143.910156 100.691406 C 143.589844 100.304688 143.101562 100.109375 142.449219 100.109375 C 141.851562 100.109375 141.351562 100.277344 140.945312 100.609375 C 140.582031 100.910156 140.402344 101.382812 140.402344 102.023438 L 140.402344 106.96875 L 136.40625 106.96875 L 136.40625 97.75 L 140.402344 97.75 L 140.402344 98.910156 C 140.859375 98.472656 141.28125 98.164062 141.667969 97.984375 C 142.289062 97.691406 143.078125 97.546875 144.015625 97.546875 C 145.21875 97.546875 146.199219 97.8125 146.949219 98.347656 C 147.8125 98.960938 148.242188 99.875 148.242188 101.09375 Z M 160.109375 103.863281 C 160.109375 104.839844 159.679688 105.640625 158.824219 106.261719 C 157.859375 106.964844 156.507812 107.3125 154.757812 107.3125 C 153.214844 107.3125 151.714844 106.960938 150.257812 106.253906 L 151.699219 103.957031 C 152.835938 104.554688 153.894531 104.851562 154.871094 104.851562 C 155.699219 104.851562 156.113281 104.617188 156.113281 104.152344 C 156.113281 103.910156 155.96875 103.722656 155.679688 103.589844 C 155.492188 103.503906 155.074219 103.402344 154.421875 103.285156 C 153.691406 103.152344 153.210938 103.050781 152.988281 102.976562 C 152.179688 102.71875 151.640625 102.316406 151.359375 101.769531 C 151.207031 101.46875 151.128906 101.113281 151.128906 100.695312 C 151.128906 99.890625 151.460938 99.183594 152.132812 98.582031 C 153 97.808594 154.332031 97.421875 156.132812 97.421875 C 157.386719 97.421875 158.605469 97.621094 159.785156 98.015625 L 158.445312 100.109375 C 157.707031 99.796875 156.996094 99.640625 156.316406 99.640625 C 155.519531 99.640625 155.121094 99.871094 155.121094 100.332031 C 155.121094 100.542969 155.28125 100.714844 155.605469 100.84375 C 155.75 100.902344 156.175781 100.992188 156.882812 101.109375 C 157.925781 101.285156 158.6875 101.570312 159.179688 101.960938 C 159.796875 102.449219 160.109375 103.085938 160.109375 103.863281 Z M 174.128906 103.605469 C 174.128906 105.324219 173.140625 106.460938 171.160156 107.027344 C 170.339844 107.257812 169.332031 107.375 168.148438 107.375 C 165.808594 107.375 164.136719 106.902344 163.113281 105.964844 C 162.46875 105.367188 162.148438 104.578125 162.148438 103.605469 L 162.148438 97.75 L 166.140625 97.75 L 166.140625 102.980469 C 166.140625 103.554688 166.3125 103.980469 166.644531 104.25 C 167.003906 104.542969 167.503906 104.6875 168.140625 104.6875 C 168.773438 104.6875 169.269531 104.542969 169.632812 104.25 C 169.964844 103.980469 170.136719 103.554688 170.136719 102.980469 L 170.136719 97.75 L 174.128906 97.75 Z M 180.824219 106.96875 L 176.832031 106.96875 L 176.832031 92.050781 L 180.824219 92.050781 Z M 190.214844 100.414062 L 187.957031 100.414062 L 187.957031 106.96875 L 183.964844 106.96875 L 183.964844 100.414062 L 182.648438 100.414062 L 182.648438 97.75 L 183.964844 97.75 L 183.964844 94.980469 L 187.957031 94.980469 L 187.957031 97.75 L 190.214844 97.75 Z M 204.347656 106.96875 L 200.355469 106.96875 L 200.355469 105.949219 C 199.976562 106.339844 199.59375 106.625 199.207031 106.804688 C 198.535156 107.117188 197.765625 107.273438 196.90625 107.273438 C 195.515625 107.273438 194.277344 106.878906 193.191406 106.09375 C 191.898438 105.152344 191.25 103.910156 191.25 102.359375 C 191.25 100.785156 191.910156 99.527344 193.238281 98.585938 C 194.292969 97.835938 195.503906 97.464844 196.867188 97.464844 C 197.667969 97.464844 198.410156 97.601562 199.113281 97.871094 C 199.515625 98.03125 199.929688 98.292969 200.355469 98.65625 L 200.355469 97.75 L 204.347656 97.75 Z M 200.476562 102.359375 C 200.476562 101.777344 200.230469 101.285156 199.734375 100.878906 C 199.238281 100.476562 198.636719 100.273438 197.933594 100.273438 C 197.152344 100.273438 196.507812 100.515625 196.003906 101.003906 C 195.59375 101.398438 195.390625 101.851562 195.390625 102.359375 C 195.390625 102.867188 195.59375 103.320312 196.003906 103.710938 C 196.5 104.199219 197.144531 104.445312 197.933594 104.445312 C 198.644531 104.445312 199.25 104.246094 199.742188 103.839844 C 200.234375 103.441406 200.476562 102.945312 200.476562 102.359375 Z M 200.476562 102.359375 "/>
</g>
</svg>
